<svg xmlns="http://www.w3.org/2000/svg" xmlns:xlink="http://www.w3.org/1999/xlink" viewBox="0 0 630.32 630.32">
  <defs>
    <radialGradient id="a" cx="363.28" cy="369.86" fx="314.01912218809855" fy="335.2734982963701" r="313.16" gradientUnits="userSpaceOnUse">
      <stop offset="0.31" stop-color="#27aae1"/>
      <stop offset="1" stop-color="#1b75bc"/>
    </radialGradient>
  </defs>
  <title>logo</title>
  <g>
    <path d="M190.67,505.38,259.89,399.1a9.62,9.62,0,0,1-4.21-8,9.46,9.46,0,0,1,.18-1.86L140.72,366.52a9.6,9.6,0,0,1-6.05,7.14L182.12,504.4a9.55,9.55,0,0,1,8.55,1Z" transform="translate(-48.12 -54.7)" stroke="#fff" stroke-miterlimit="10" stroke-width="4" fill="url(#a)"/>
    <path d="M298,111.31,326,255a9.26,9.26,0,0,1,1.84-.18,9.57,9.57,0,0,1,5.75,1.91L445.05,106.81a9.6,9.6,0,0,1-3.71-7.43L305.7,101.69v.17A9.64,9.64,0,0,1,298,111.31Z" transform="translate(-48.12 -54.7)" stroke="#fff" stroke-miterlimit="10" stroke-width="4" fill="url(#a)"/>
    <path d="M333.83,272l93.83,118.76a9.57,9.57,0,0,1,6-2.08,9.68,9.68,0,0,1,3.85.8l57.16-131.26a9.66,9.66,0,0,1-5.75-8L337.45,263.6a7.92,7.92,0,0,1,.05.85A9.63,9.63,0,0,1,333.83,272Z" transform="translate(-48.12 -54.7)" stroke="#fff" stroke-miterlimit="10" stroke-width="4" fill="url(#a)"/>
    <path d="M424,398.33c0-.14,0-.27,0-.41l-149.07-6.37a9.64,9.64,0,0,1-5.68,8.38l73.08,169.83a9.52,9.52,0,0,1,3.81-.79,9.67,9.67,0,0,1,4.2,1l78.94-163A9.62,9.62,0,0,1,424,398.33Z" transform="translate(-48.12 -54.7)" stroke="#fff" stroke-miterlimit="10" stroke-width="4" fill="url(#a)"/>
    <path d="M296.06,92.22a9.6,9.6,0,0,1,6.3,2.34l31.45-36.47a311.08,311.08,0,0,0-99.72,26.42l52.69,14.75A9.65,9.65,0,0,1,296.06,92.22Z" transform="translate(-48.12 -54.7)" stroke="#fff" stroke-miterlimit="10" stroke-width="4" fill="url(#a)"/>
    <path d="M454,108.37,495.59,240.2a9.61,9.61,0,0,1,2.9-.45,9.52,9.52,0,0,1,5,1.41L568.71,133.5a313.84,313.84,0,0,0-38.43-28.58l-69.7-5A9.62,9.62,0,0,1,454,108.37Z" transform="translate(-48.12 -54.7)" stroke="#fff" stroke-miterlimit="10" stroke-width="4" fill="url(#a)"/>
    <path d="M451,89.57a9.56,9.56,0,0,1,5.77,1.93L469,75a311.14,311.14,0,0,0-76.91-17l50.95,35.65A9.62,9.62,0,0,1,451,89.57Z" transform="translate(-48.12 -54.7)" stroke="#fff" stroke-miterlimit="10" stroke-width="4" fill="url(#a)"/>
    <path d="M180.16,220.13a9.58,9.58,0,0,1,6.46,2.5l102.8-113.79a9.63,9.63,0,0,1-2.7-4.62L152.63,138.13A315.05,315.05,0,0,0,119.75,173l53.39,50.18A9.61,9.61,0,0,1,180.16,220.13Z" transform="translate(-48.12 -54.7)" stroke="#fff" stroke-miterlimit="10" stroke-width="4" fill="url(#a)"/>
    <path d="M571.55,391.6l-128.3,6.26c0,.16,0,.31,0,.47a9.62,9.62,0,0,1-4.7,8.27l59.2,103.49a9.57,9.57,0,0,1,9.83.16l68.35-111A9.61,9.61,0,0,1,571.55,391.6Z" transform="translate(-48.12 -54.7)" stroke="#fff" stroke-miterlimit="10" stroke-width="4" fill="url(#a)"/>
    <path d="M131.27,355a9.67,9.67,0,0,1,3.28.58l42.33-116.76a9.62,9.62,0,0,1-6-6.34L69,262.48a312.6,312.6,0,0,0-11,37l66,58.78A9.59,9.59,0,0,1,131.27,355Z" transform="translate(-48.12 -54.7)" stroke="#fff" stroke-miterlimit="10" stroke-width="4" fill="url(#a)"/>
    <path d="M508.14,249.39a9.65,9.65,0,0,1-4.79,8.33l73,125.09a9.63,9.63,0,0,1,4.86-1.32,9.54,9.54,0,0,1,4.3,1l66.76-133.58a311.09,311.09,0,0,0-13.49-28.16l-130.8,26.69A9.33,9.33,0,0,1,508.14,249.39Z" transform="translate(-48.12 -54.7)" stroke="#fff" stroke-miterlimit="10" stroke-width="4" fill="url(#a)"/>
    <path d="M493.56,521.91,355.14,575.16a9.41,9.41,0,0,1,.65,3.45,9.61,9.61,0,0,1-3.48,7.42l75.18,90.39a310.36,310.36,0,0,0,38.07-10.5L500.21,527.8A9.67,9.67,0,0,1,493.56,521.91Z" transform="translate(-48.12 -54.7)" stroke="#fff" stroke-miterlimit="10" stroke-width="4" fill="url(#a)"/>
    <path d="M121.76,366.23,50.22,378.07A311.89,311.89,0,0,0,75.67,493.93l51.66-120.48A9.64,9.64,0,0,1,121.76,366.23Z" transform="translate(-48.12 -54.7)" stroke="#fff" stroke-miterlimit="10" stroke-width="4" fill="url(#a)"/>
    <path d="M512.19,518.45a9.61,9.61,0,0,1-3.74,7.62l61.3,79.23a314.12,314.12,0,0,0,75.74-99.54L512.15,517.6A8.06,8.06,0,0,1,512.19,518.45Z" transform="translate(-48.12 -54.7)" stroke="#fff" stroke-miterlimit="10" stroke-width="4" fill="url(#a)"/>
    <path d="M590.81,391.13a9.64,9.64,0,0,1-3.62,7.53l66.88,87.62a311.83,311.83,0,0,0,22.16-105.56l-85.48,9.36A9.24,9.24,0,0,1,590.81,391.13Z" transform="translate(-48.12 -54.7)" stroke="#fff" stroke-miterlimit="10" stroke-width="4" fill="url(#a)"/>
    <path d="M336.51,578.61a9.5,9.5,0,0,1,.71-3.62L194.35,517.07a9.68,9.68,0,0,1-4.65,5L261.12,666a310.74,310.74,0,0,0,32.69,9.31l47.75-88.18A9.65,9.65,0,0,1,336.51,578.61Z" transform="translate(-48.12 -54.7)" stroke="#fff" stroke-miterlimit="10" stroke-width="4" fill="url(#a)"/>
    <path d="M175.89,514.88,92.59,527.4a314.63,314.63,0,0,0,60.71,74.79l28.83-79.68A9.63,9.63,0,0,1,175.89,514.88Z" transform="translate(-48.12 -54.7)" stroke="#fff" stroke-miterlimit="10" stroke-width="4" fill="url(#a)"/>
    <path d="M269.58,382.5l54-109.41a9.63,9.63,0,0,1-5.38-8.64,10,10,0,0,1,.26-2.2L189.54,232a9.65,9.65,0,0,1-4.88,6.33l76.16,144.31a9.55,9.55,0,0,1,8.76-.11Z" transform="translate(-48.12 -54.7)" stroke="#fff" stroke-miterlimit="10" stroke-width="4" fill="url(#a)"/>
    <path d="M185.41,523.09a9.67,9.67,0,0,1-3.28-.58L153.3,602.19A313,313,0,0,0,261.12,666L189.7,522.08A9.68,9.68,0,0,1,185.41,523.09Z" transform="translate(-48.12 -54.7)" stroke="#fff" stroke-miterlimit="10" stroke-width="4" fill="url(#a)"/>
    <path d="M346.15,588.26a9.59,9.59,0,0,1-4.59-1.16l-47.75,88.18a315.64,315.64,0,0,0,133.68,1.14L352.31,586A9.58,9.58,0,0,1,346.15,588.26Z" transform="translate(-48.12 -54.7)" stroke="#fff" stroke-miterlimit="10" stroke-width="4" fill="url(#a)"/>
    <path d="M502.55,528.1a9.5,9.5,0,0,1-2.34-.3L465.56,665.92A312.82,312.82,0,0,0,569.75,605.3l-61.3-79.23A9.58,9.58,0,0,1,502.55,528.1Z" transform="translate(-48.12 -54.7)" stroke="#fff" stroke-miterlimit="10" stroke-width="4" fill="url(#a)"/>
    <path d="M175.77,513.45a9.63,9.63,0,0,1,6.35-9.05L134.67,373.66a9.38,9.38,0,0,1-3.4.63,9.6,9.6,0,0,1-3.94-.84L75.67,493.93A313.12,313.12,0,0,0,92.59,527.4l83.3-12.52A9.62,9.62,0,0,1,175.77,513.45Z" transform="translate(-48.12 -54.7)" stroke="#fff" stroke-miterlimit="10" stroke-width="4" fill="url(#a)"/>
    <path d="M342.34,569.76,269.26,399.93a9.59,9.59,0,0,1-9.37-.83L190.67,505.38a9.65,9.65,0,0,1,3.68,11.69L337.22,575A9.68,9.68,0,0,1,342.34,569.76Z" transform="translate(-48.12 -54.7)" stroke="#fff" stroke-miterlimit="10" stroke-width="4" fill="url(#a)"/>
    <path d="M497.77,510.09,438.57,406.6a9.58,9.58,0,0,1-9.28.33l-78.94,163a9.68,9.68,0,0,1,4.79,5.22l138.42-53.25a9.46,9.46,0,0,1-.65-3.46A9.63,9.63,0,0,1,497.77,510.09Z" transform="translate(-48.12 -54.7)" stroke="#fff" stroke-miterlimit="10" stroke-width="4" fill="url(#a)"/>
    <path d="M581.17,400.78a9.58,9.58,0,0,1-5.22-1.54l-68.35,111a9.61,9.61,0,0,1,4.55,7.35l133.34-11.84q4.62-9.57,8.58-19.48l-66.88-87.62A9.61,9.61,0,0,1,581.17,400.78Z" transform="translate(-48.12 -54.7)" stroke="#fff" stroke-miterlimit="10" stroke-width="4" fill="url(#a)"/>
    <path d="M190.67,505.38a9.55,9.55,0,0,0-8.55-1" transform="translate(-48.12 -54.7)" fill="#fff" stroke="#fff" stroke-miterlimit="10"/>
    <path d="M189.7,522.08a9.68,9.68,0,0,0,4.65-5" transform="translate(-48.12 -54.7)" fill="#fff" stroke="#fff" stroke-miterlimit="10"/>
    <path d="M175.89,514.88a9.63,9.63,0,0,0,6.24,7.63" transform="translate(-48.12 -54.7)" fill="#fff" stroke="#fff" stroke-miterlimit="10"/>
    <path d="M182.13,522.51a9.59,9.59,0,0,0,7.57-.43" transform="translate(-48.12 -54.7)" fill="#fff" stroke="#fff" stroke-miterlimit="10"/>
    <path d="M182.12,504.4a9.51,9.51,0,0,0-6.23,10.48" transform="translate(-48.12 -54.7)" fill="#fff" stroke="#fff" stroke-miterlimit="10"/>
    <path d="M194.35,517.07a9.65,9.65,0,0,0-3.68-11.69" transform="translate(-48.12 -54.7)" fill="#fff" stroke="#fff" stroke-miterlimit="10"/>
    <path d="M350.35,569.94a9.67,9.67,0,0,0-4.2-1,9.52,9.52,0,0,0-3.81.79" transform="translate(-48.12 -54.7)" fill="#fff" stroke="#fff" stroke-miterlimit="10"/>
    <path d="M337.22,575a9.5,9.5,0,0,0-.71,3.62,9.65,9.65,0,0,0,5.05,8.49" transform="translate(-48.12 -54.7)" fill="#fff" stroke="#fff" stroke-miterlimit="10"/>
    <path d="M352.31,586a9.61,9.61,0,0,0,3.48-7.42,9.41,9.41,0,0,0-.65-3.45" transform="translate(-48.12 -54.7)" fill="#fff" stroke="#fff" stroke-miterlimit="10"/>
    <path d="M341.56,587.1A9.64,9.64,0,0,0,352.31,586" transform="translate(-48.12 -54.7)" fill="#fff" stroke="#fff" stroke-miterlimit="10"/>
    <path d="M342.34,569.76a9.68,9.68,0,0,0-5.12,5.23" transform="translate(-48.12 -54.7)" fill="#fff" stroke="#fff" stroke-miterlimit="10"/>
    <path d="M355.14,575.16a9.68,9.68,0,0,0-4.79-5.22" transform="translate(-48.12 -54.7)" fill="#fff" stroke="#fff" stroke-miterlimit="10"/>
    <path d="M508.45,526.07a9.61,9.61,0,0,0,3.74-7.62,8.06,8.06,0,0,0,0-.85" transform="translate(-48.12 -54.7)" fill="#fff" stroke="#fff" stroke-miterlimit="10"/>
    <path d="M507.6,510.25a9.57,9.57,0,0,0-9.83-.16" transform="translate(-48.12 -54.7)" fill="#fff" stroke="#fff" stroke-miterlimit="10"/>
    <path d="M493.56,521.91a9.67,9.67,0,0,0,6.65,5.89" transform="translate(-48.12 -54.7)" fill="#fff" stroke="#fff" stroke-miterlimit="10"/>
    <path d="M500.21,527.8a9.5,9.5,0,0,0,8.24-1.73" transform="translate(-48.12 -54.7)" fill="#fff" stroke="#fff" stroke-miterlimit="10"/>
    <path d="M497.77,510.09a9.63,9.63,0,0,0-4.86,8.36,9.46,9.46,0,0,0,.65,3.46" transform="translate(-48.12 -54.7)" fill="#fff" stroke="#fff" stroke-miterlimit="10"/>
    <path d="M512.15,517.6a9.61,9.61,0,0,0-4.55-7.35" transform="translate(-48.12 -54.7)" fill="#fff" stroke="#fff" stroke-miterlimit="10"/>
    <path d="M121.62,364.65a9.57,9.57,0,0,1,2.45-6.4l-66-58.78a314.58,314.58,0,0,0-7.94,70.39c0,2.75,0,5.48.1,8.21l71.54-11.84A10.31,10.31,0,0,1,121.62,364.65Z" transform="translate(-48.12 -54.7)" stroke="#fff" stroke-miterlimit="10" stroke-width="4" fill="url(#a)"/>
    <path d="M140.91,364.65a9.56,9.56,0,0,1-.19,1.87l115.14,22.75a9.65,9.65,0,0,1,5-6.66L184.66,238.3a9.52,9.52,0,0,1-7.78.53L134.55,355.59A9.64,9.64,0,0,1,140.91,364.65Z" transform="translate(-48.12 -54.7)" stroke="#fff" stroke-miterlimit="10" stroke-width="4" fill="url(#a)"/>
    <path d="M427.66,390.77,333.83,272a9.62,9.62,0,0,1-6,2.08,9.51,9.51,0,0,1-4.26-1l-54,109.41a9.61,9.61,0,0,1,5.38,8.63c0,.14,0,.28,0,.42L424,397.92A9.58,9.58,0,0,1,427.66,390.77Z" transform="translate(-48.12 -54.7)" stroke="#fff" stroke-miterlimit="10" stroke-width="4" fill="url(#a)"/>
    <path d="M494.64,258.23,437.48,389.49a9.65,9.65,0,0,1,5.77,8.37l128.3-6.26c0-.15,0-.31,0-.47a9.63,9.63,0,0,1,4.79-8.32l-73-125.09a9.63,9.63,0,0,1-4.86,1.32A9.52,9.52,0,0,1,494.64,258.23Z" transform="translate(-48.12 -54.7)" stroke="#fff" stroke-miterlimit="10" stroke-width="4" fill="url(#a)"/>
    <path d="M652.23,248.94,585.47,382.52a9.61,9.61,0,0,1,5.28,7.56l85.48-9.36c.12-3.6.21-7.22.21-10.86A312.11,312.11,0,0,0,652.23,248.94Z" transform="translate(-48.12 -54.7)" stroke="#fff" stroke-miterlimit="10" stroke-width="4" fill="url(#a)"/>
    <path d="M170.52,229.77a9.63,9.63,0,0,1,2.62-6.6L119.75,173A312.57,312.57,0,0,0,69,262.48l101.91-30A9.37,9.37,0,0,1,170.52,229.77Z" transform="translate(-48.12 -54.7)" stroke="#fff" stroke-miterlimit="10" stroke-width="4" fill="url(#a)"/>
    <path d="M189.81,229.77a9.33,9.33,0,0,1-.27,2.2l128.93,30.28A9.63,9.63,0,0,1,326,255L298,111.31a10.08,10.08,0,0,1-1.92.19,9.59,9.59,0,0,1-6.64-2.66L186.62,222.63A9.59,9.59,0,0,1,189.81,229.77Z" transform="translate(-48.12 -54.7)" stroke="#fff" stroke-miterlimit="10" stroke-width="4" fill="url(#a)"/>
    <path d="M445.05,106.81,333.6,256.72a9.58,9.58,0,0,1,3.85,6.88l151.44-13.36c0-.28,0-.56,0-.85a9.64,9.64,0,0,1,6.74-9.19L454,108.37a9.55,9.55,0,0,1-8.93-1.56Z" transform="translate(-48.12 -54.7)" stroke="#fff" stroke-miterlimit="10" stroke-width="4" fill="url(#a)"/>
    <path d="M507.94,247.47l130.8-26.69a314.33,314.33,0,0,0-70-87.28L503.48,241.16A9.62,9.62,0,0,1,507.94,247.47Z" transform="translate(-48.12 -54.7)" stroke="#fff" stroke-miterlimit="10" stroke-width="4" fill="url(#a)"/>
    <path d="M269.58,382.5a9.55,9.55,0,0,0-8.76.11" transform="translate(-48.12 -54.7)" fill="#fff" stroke="#fff" stroke-miterlimit="10"/>
    <path d="M255.86,389.27a9.46,9.46,0,0,0-.18,1.86,9.62,9.62,0,0,0,4.21,8" transform="translate(-48.12 -54.7)" fill="#fff" stroke="#fff" stroke-miterlimit="10"/>
    <path d="M269.26,399.93a9.64,9.64,0,0,0,5.68-8.38" transform="translate(-48.12 -54.7)" fill="#fff" stroke="#fff" stroke-miterlimit="10"/>
    <path d="M259.89,399.1a9.59,9.59,0,0,0,9.37.83" transform="translate(-48.12 -54.7)" fill="#fff" stroke="#fff" stroke-miterlimit="10"/>
    <path d="M260.82,382.61a9.65,9.65,0,0,0-5,6.66" transform="translate(-48.12 -54.7)" fill="#fff" stroke="#fff" stroke-miterlimit="10"/>
    <path d="M274.94,391.55c0-.14,0-.28,0-.42a9.61,9.61,0,0,0-5.38-8.63" transform="translate(-48.12 -54.7)" fill="#fff" stroke="#fff" stroke-miterlimit="10"/>
    <path d="M437.48,389.49a9.68,9.68,0,0,0-3.85-.8,9.57,9.57,0,0,0-6,2.08" transform="translate(-48.12 -54.7)" fill="#fff" stroke="#fff" stroke-miterlimit="10"/>
    <path d="M424,397.92c0,.14,0,.27,0,.41a9.62,9.62,0,0,0,5.3,8.6" transform="translate(-48.12 -54.7)" fill="#fff" stroke="#fff" stroke-miterlimit="10"/>
    <path d="M438.57,406.6a9.62,9.62,0,0,0,4.7-8.27c0-.16,0-.31,0-.47" transform="translate(-48.12 -54.7)" fill="#fff" stroke="#fff" stroke-miterlimit="10"/>
    <path d="M429.29,406.93a9.58,9.58,0,0,0,9.28-.33" transform="translate(-48.12 -54.7)" fill="#fff" stroke="#fff" stroke-miterlimit="10"/>
    <path d="M427.66,390.77a9.58,9.58,0,0,0-3.65,7.15" transform="translate(-48.12 -54.7)" fill="#fff" stroke="#fff" stroke-miterlimit="10"/>
    <path d="M443.25,397.86a9.65,9.65,0,0,0-5.77-8.37" transform="translate(-48.12 -54.7)" fill="#fff" stroke="#fff" stroke-miterlimit="10"/>
    <path d="M571.55,391.6a9.61,9.61,0,0,0,4.4,7.64" transform="translate(-48.12 -54.7)" fill="#fff" stroke="#fff" stroke-miterlimit="10"/>
    <path d="M587.19,398.66a9.64,9.64,0,0,0,3.62-7.53,9.24,9.24,0,0,0-.06-1.05" transform="translate(-48.12 -54.7)" fill="#fff" stroke="#fff" stroke-miterlimit="10"/>
    <path d="M585.47,382.52a9.54,9.54,0,0,0-4.3-1,9.63,9.63,0,0,0-4.86,1.32" transform="translate(-48.12 -54.7)" fill="#fff" stroke="#fff" stroke-miterlimit="10"/>
    <path d="M576,399.24a9.61,9.61,0,0,0,11.24-.58" transform="translate(-48.12 -54.7)" fill="#fff" stroke="#fff" stroke-miterlimit="10"/>
    <path d="M576.31,382.81a9.63,9.63,0,0,0-4.79,8.32c0,.16,0,.32,0,.47" transform="translate(-48.12 -54.7)" fill="#fff" stroke="#fff" stroke-miterlimit="10"/>
    <path d="M590.75,390.08a9.61,9.61,0,0,0-5.28-7.56" transform="translate(-48.12 -54.7)" fill="#fff" stroke="#fff" stroke-miterlimit="10"/>
    <path d="M186.62,222.63a9.61,9.61,0,0,0-13.48.54" transform="translate(-48.12 -54.7)" fill="#fff" stroke="#fff" stroke-miterlimit="10"/>
    <path d="M184.66,238.3a9.65,9.65,0,0,0,4.88-6.33" transform="translate(-48.12 -54.7)" fill="#fff" stroke="#fff" stroke-miterlimit="10"/>
    <path d="M170.92,232.49a9.62,9.62,0,0,0,6,6.34" transform="translate(-48.12 -54.7)" fill="#fff" stroke="#fff" stroke-miterlimit="10"/>
    <path d="M176.88,238.83a9.52,9.52,0,0,0,7.78-.53" transform="translate(-48.12 -54.7)" fill="#fff" stroke="#fff" stroke-miterlimit="10"/>
    <path d="M173.14,223.17a9.63,9.63,0,0,0-2.62,6.6,9.37,9.37,0,0,0,.4,2.72" transform="translate(-48.12 -54.7)" fill="#fff" stroke="#fff" stroke-miterlimit="10"/>
    <path d="M189.54,232a9.33,9.33,0,0,0,.27-2.2,9.59,9.59,0,0,0-3.19-7.14" transform="translate(-48.12 -54.7)" fill="#fff" stroke="#fff" stroke-miterlimit="10"/>
    <path d="M318.47,262.25a10,10,0,0,0-.26,2.2,9.63,9.63,0,0,0,5.38,8.64" transform="translate(-48.12 -54.7)" fill="#fff" stroke="#fff" stroke-miterlimit="10"/>
    <path d="M333.83,272a9.63,9.63,0,0,0,3.67-7.56,7.92,7.92,0,0,0-.05-.85" transform="translate(-48.12 -54.7)" fill="#fff" stroke="#fff" stroke-miterlimit="10"/>
    <path d="M333.6,256.72a9.57,9.57,0,0,0-5.75-1.91A9.26,9.26,0,0,0,326,255" transform="translate(-48.12 -54.7)" fill="#fff" stroke="#fff" stroke-miterlimit="10"/>
    <path d="M323.59,273.09a9.51,9.51,0,0,0,4.26,1,9.62,9.62,0,0,0,6-2.08" transform="translate(-48.12 -54.7)" fill="#fff" stroke="#fff" stroke-miterlimit="10"/>
    <path d="M326,255a9.63,9.63,0,0,0-7.54,7.26" transform="translate(-48.12 -54.7)" fill="#fff" stroke="#fff" stroke-miterlimit="10"/>
    <path d="M337.45,263.6a9.58,9.58,0,0,0-3.85-6.88" transform="translate(-48.12 -54.7)" fill="#fff" stroke="#fff" stroke-miterlimit="10"/>
    <path d="M488.89,250.24a9.66,9.66,0,0,0,5.75,8" transform="translate(-48.12 -54.7)" fill="#fff" stroke="#fff" stroke-miterlimit="10"/>
    <path d="M503.48,241.16a9.52,9.52,0,0,0-5-1.41,9.61,9.61,0,0,0-2.9.45" transform="translate(-48.12 -54.7)" fill="#fff" stroke="#fff" stroke-miterlimit="10"/>
    <path d="M503.35,257.72a9.65,9.65,0,0,0,4.79-8.33,9.33,9.33,0,0,0-.2-1.92" transform="translate(-48.12 -54.7)" fill="#fff" stroke="#fff" stroke-miterlimit="10"/>
    <path d="M494.64,258.23a9.52,9.52,0,0,0,3.85.81,9.63,9.63,0,0,0,4.86-1.32" transform="translate(-48.12 -54.7)" fill="#fff" stroke="#fff" stroke-miterlimit="10"/>
    <path d="M495.59,240.2a9.64,9.64,0,0,0-6.74,9.19c0,.29,0,.57,0,.85" transform="translate(-48.12 -54.7)" fill="#fff" stroke="#fff" stroke-miterlimit="10"/>
    <path d="M507.94,247.47a9.62,9.62,0,0,0-4.46-6.31" transform="translate(-48.12 -54.7)" fill="#fff" stroke="#fff" stroke-miterlimit="10"/>
    <path d="M286.42,101.86a9.72,9.72,0,0,1,.36-2.6L234.09,84.51a313.69,313.69,0,0,0-81.46,53.62l134.09-33.91A9.66,9.66,0,0,1,286.42,101.86Z" transform="translate(-48.12 -54.7)" stroke="#fff" stroke-miterlimit="10" stroke-width="4" fill="url(#a)"/>
    <path d="M305.7,101.69l135.64-2.31c0-.06,0-.11,0-.16a9.59,9.59,0,0,1,1.75-5.53L392.13,58c-9.5-.87-19.12-1.34-28.85-1.34q-14.91,0-29.47,1.39L302.36,94.56A9.66,9.66,0,0,1,305.7,101.69Z" transform="translate(-48.12 -54.7)" stroke="#fff" stroke-miterlimit="10" stroke-width="4" fill="url(#a)"/>
    <path d="M460.62,99.22c0,.23,0,.46,0,.69l69.7,5A311,311,0,0,0,469,75L456.74,91.5A9.62,9.62,0,0,1,460.62,99.22Z" transform="translate(-48.12 -54.7)" stroke="#fff" stroke-miterlimit="10" stroke-width="4" fill="url(#a)"/>
    <path d="M302.36,94.56a9.64,9.64,0,0,0-15.58,4.7" transform="translate(-48.12 -54.7)" fill="#fff" stroke="#fff" stroke-miterlimit="10"/>
    <path d="M286.72,104.22a9.63,9.63,0,0,0,2.7,4.62" transform="translate(-48.12 -54.7)" fill="#fff" stroke="#fff" stroke-miterlimit="10"/>
    <path d="M298,111.31a9.64,9.64,0,0,0,7.72-9.45v-.17" transform="translate(-48.12 -54.7)" fill="#fff" stroke="#fff" stroke-miterlimit="10"/>
    <path d="M289.42,108.84a9.59,9.59,0,0,0,6.64,2.66,10.08,10.08,0,0,0,1.92-.19" transform="translate(-48.12 -54.7)" fill="#fff" stroke="#fff" stroke-miterlimit="10"/>
    <path d="M286.78,99.26a9.5,9.5,0,0,0-.06,5" transform="translate(-48.12 -54.7)" fill="#fff" stroke="#fff" stroke-miterlimit="10"/>
    <path d="M305.7,101.69a9.66,9.66,0,0,0-3.34-7.13" transform="translate(-48.12 -54.7)" fill="#fff" stroke="#fff" stroke-miterlimit="10"/>
    <path d="M441.34,99.38a9.6,9.6,0,0,0,3.71,7.43" transform="translate(-48.12 -54.7)" fill="#fff" stroke="#fff" stroke-miterlimit="10"/>
    <path d="M454,108.37a9.62,9.62,0,0,0,6.6-8.46" transform="translate(-48.12 -54.7)" fill="#fff" stroke="#fff" stroke-miterlimit="10"/>
    <path d="M456.74,91.5a9.61,9.61,0,0,0-13.66,2.19" transform="translate(-48.12 -54.7)" fill="#fff" stroke="#fff" stroke-miterlimit="10"/>
    <path d="M445.05,106.81a9.55,9.55,0,0,0,8.93,1.56" transform="translate(-48.12 -54.7)" fill="#fff" stroke="#fff" stroke-miterlimit="10"/>
    <path d="M443.08,93.69a9.59,9.59,0,0,0-1.75,5.53s0,.1,0,.16" transform="translate(-48.12 -54.7)" fill="#fff" stroke="#fff" stroke-miterlimit="10"/>
    <path d="M460.58,99.91c0-.23,0-.46,0-.69a9.62,9.62,0,0,0-3.88-7.72" transform="translate(-48.12 -54.7)" fill="#fff" stroke="#fff" stroke-miterlimit="10"/>
  </g>
</svg>
